<svg id="Layer_1" data-name="Layer 1" xmlns="http://www.w3.org/2000/svg" xmlns:xlink="http://www.w3.org/1999/xlink" viewBox="0 0 406.78 416.7"><defs><style>.cls-1{fill:#e52b23;stroke:#030505;}.cls-1,.cls-2,.cls-3,.cls-4{stroke-miterlimit:10;stroke-width:0.25px;}.cls-2{stroke:#e52f17;fill:url(#linear-gradient);}.cls-3,.cls-4{stroke:#941916;}.cls-3{fill:url(#linear-gradient-2);}.cls-4{fill:url(#linear-gradient-3);}</style><linearGradient id="linear-gradient" x1="516.27" y1="49.95" x2="648.37" y2="49.95" gradientTransform="matrix(1, 0, 0, -1, -252.28, 417.7)" gradientUnits="userSpaceOnUse"><stop offset="0" stop-color="#fff"/><stop offset="0.86"/></linearGradient><linearGradient id="linear-gradient-2" x1="495.95" y1="-91.22" x2="545.37" y2="-62.68" gradientTransform="matrix(1, 0, 0, -1, -252.28, 417.7)" gradientUnits="userSpaceOnUse"><stop offset="0"/><stop offset="1" stop-color="#fff"/></linearGradient><linearGradient id="linear-gradient-3" x1="571.24" y1="-97.07" x2="622.98" y2="-67.2" xlink:href="#linear-gradient-2"/></defs><title>Logo-Hoteel</title><path class="cls-1" d="M259,395.19v23.67a1.19,1.19,0,0,1-2,.88l-37.24-33.49a1.19,1.19,0,0,0-2,.89v4l-.24,14.66v3.94l-.09,22.85v4.16l-.08,18.38v2.31l-.08,24.41v2.6l-.25,21.06a1.18,1.18,0,0,1-.39.87l-18.11,16.31a1.19,1.19,0,0,1-2-.89V366a1.18,1.18,0,0,0-.4-.89l-18.83-16.9-.92-.82v77.38a1.19,1.19,0,0,1-.4.88L154.46,445a1.19,1.19,0,0,1-2-.89V301.65a1.19,1.19,0,0,1,2-.88l10.78,9.74,11.19,10,3.82,3.5,11.94,10.71,4.39,3.87,10.61,9.6,10.61,9.45,2.08,1.86,14.84,13.39,9.61,8.64,2.49,2.15,11.8,10.66A1.2,1.2,0,0,1,259,395.19Z" transform="translate(-105.09 -131.33)"/><path class="cls-2" d="M350.05,276.88V277l-.17,20.24v6.4l-.08,20.54v1l-.16,19.8v6.84l-.09,8.78v13.77l-.16,16.29v29.84l-.09.08-1.16,1-14.92,13.47-5,4.47L319,447.57l-10.94,9.9-3.19,2.85a1.18,1.18,0,0,1-1.59,0l-38.94-34.94a1.18,1.18,0,0,1-.39-.88V274.87l.92.82,14.92,13.39,3.83,3.43a1.21,1.21,0,0,1,.4.89V415.64a1.18,1.18,0,0,0,.39.88l7.65,6.87,11.22,10.07a1.19,1.19,0,0,0,1.59,0l3.19-2.92,19.75-17.73a1.19,1.19,0,0,0,.4-.88V295.64a1.18,1.18,0,0,1,.4-.89l5.73-5.08,14.92-13.46Z" transform="translate(-105.09 -131.33)"/><path class="cls-1" d="M460,297.87V441.93a1.2,1.2,0,0,1-2,.89l-11.69-10.5h-.08l-2.9-2.61-3.48-3.12v-.08l-3.43-3.07a1.19,1.19,0,0,1-.39-.89V346.22a1.19,1.19,0,0,0-2-.89l-.41.38v.07L418.2,359.62l-2.41,2.08-3.48,3.2h-.08l-.08,10-.09,12.8L412,401.51l-.08,13.17-.08,9.3-.17,12.51-.08,14.13-.09,12.88-.08,8.55-.25,26.64L411,521.91v2l-15.26-13.69-4.82-4.33a1.2,1.2,0,0,1-.4-.9l.25-22.83v-1.78l.25-25.45v-1.19l.24-20.54v-.74l.25-26.27v-.45l.25-22.39-1,.89-11.61,10.42-5.64,5.06-9.37,8.41-7.8,7a1.18,1.18,0,0,1-2-.88V390.51a1.2,1.2,0,0,1,.39-.89l9.39-8.42,9.37-8.41,3.24-2.9,12.27-11,1.49-1.34,1.16-1.05,4.06-3.49,8.21-7.07-.08-.08-.17-.14,12.1-10.79,2.82-2.61h.09l21.14-19,5.22-4.77,12-10.78L458,297A1.19,1.19,0,0,1,460,297.87Z" transform="translate(-105.09 -131.33)"/><path class="cls-1" d="M241.77,305v45.18a1.19,1.19,0,0,1-2,.88l-17.42-15.65a1.16,1.16,0,0,1-.4-.89l.08-20.44.09-5.73.08-15.92v-2.85a1.19,1.19,0,0,1,2-.89l1.09,1,12,10.72,4.08,3.73A1.2,1.2,0,0,1,241.77,305Z" transform="translate(-105.09 -131.33)"/><path class="cls-1" d="M391.75,289.14v44.28a1.18,1.18,0,0,1-.39.88l-3.59,3.29-12,10.79-4.24,3.75a1.19,1.19,0,0,1-2-.89V307a1.2,1.2,0,0,1,.39-.89l17.77-15.94,2.07-1.87A1.19,1.19,0,0,1,391.75,289.14Z" transform="translate(-105.09 -131.33)"/><path class="cls-3" d="M284.06,465.07v62.86a1.17,1.17,0,0,1-.39.88l-6.49,5.9-11.21,10a1.19,1.19,0,0,1-2-.89V449.19a1.18,1.18,0,0,1,.36-.85h0a1.18,1.18,0,0,1,1.62,0l11.21,10.05,6.48,5.82A1.18,1.18,0,0,1,284.06,465.07Z" transform="translate(-105.09 -131.33)"/><path class="cls-4" d="M349.14,447.57v1.64l-.08,21-.09,4.24-.08,17.34v9.45l-.08,17.56-.09,3.8-.07,24.14a1.19,1.19,0,0,1-2,.88l-15-13.41-3-2.78a1.2,1.2,0,0,1-.38-.87V465.1a1.18,1.18,0,0,1,.44-.92Z" transform="translate(-105.09 -131.33)"/><path class="cls-1" d="M533.3,353.89" transform="translate(-105.09 -131.33)"/><path class="cls-1" d="M542.3,340.63" transform="translate(-105.09 -131.33)"/><path class="cls-1" d="M511.69,336.49a1.19,1.19,0,0,1-2,1.2l-8.49-8.19L309.3,144.55a1.2,1.2,0,0,0-1.65,0l-191.92,185-8.5,8.19a1.19,1.19,0,0,1-2-1.2l4-13.31a1.28,1.28,0,0,1,.31-.51L301.86,137.38l5.79-5.59a1.2,1.2,0,0,1,1.65,0l5.8,5.59,63.53,61.21a1.19,1.19,0,0,0,2-.85V174.08a1.19,1.19,0,0,1,1.19-1.19h16.59a1.19,1.19,0,0,1,1.19,1.19v44.24a1.22,1.22,0,0,0,.36.86L507.37,322.67a1.19,1.19,0,0,1,.32.51Z" transform="translate(-105.09 -131.33)"/></svg>